<mxfile host="app.diagrams.net" modified="2022-03-01T12:47:10.406Z" agent="5.0 (Windows NT 10.0; Win64; x64) AppleWebKit/537.36 (KHTML, like Gecko) Chrome/98.0.4758.102 Safari/537.36" etag="D2rsKMA5EYN4VjadXAfG" version="16.6.4" type="github">
  <diagram id="C5RBs43oDa-KdzZeNtuy" name="Page-1">
    <mxGraphModel dx="1019" dy="576" grid="1" gridSize="10" guides="1" tooltips="1" connect="1" arrows="1" fold="1" page="1" pageScale="1" pageWidth="10000" pageHeight="10000" math="0" shadow="0">
      <root>
        <mxCell id="WIyWlLk6GJQsqaUBKTNV-0" />
        <mxCell id="WIyWlLk6GJQsqaUBKTNV-1" parent="WIyWlLk6GJQsqaUBKTNV-0" />
        <mxCell id="FCO6QtdX7hiuExBEIRpz-0" value="Start" style="ellipse;whiteSpace=wrap;html=1;" vertex="1" parent="WIyWlLk6GJQsqaUBKTNV-1">
          <mxGeometry x="275" y="80" width="120" height="40" as="geometry" />
        </mxCell>
        <mxCell id="FCO6QtdX7hiuExBEIRpz-1" value="End" style="ellipse;whiteSpace=wrap;html=1;" vertex="1" parent="WIyWlLk6GJQsqaUBKTNV-1">
          <mxGeometry x="265" y="430" width="120" height="40" as="geometry" />
        </mxCell>
        <mxCell id="FCO6QtdX7hiuExBEIRpz-2" value="Read Water Level" style="shape=parallelogram;perimeter=parallelogramPerimeter;whiteSpace=wrap;html=1;fixedSize=1;" vertex="1" parent="WIyWlLk6GJQsqaUBKTNV-1">
          <mxGeometry x="140" y="200" width="130" height="40" as="geometry" />
        </mxCell>
        <mxCell id="FCO6QtdX7hiuExBEIRpz-3" value="Read pH value" style="shape=parallelogram;perimeter=parallelogramPerimeter;whiteSpace=wrap;html=1;fixedSize=1;" vertex="1" parent="WIyWlLk6GJQsqaUBKTNV-1">
          <mxGeometry x="280" y="200" width="110" height="40" as="geometry" />
        </mxCell>
        <mxCell id="FCO6QtdX7hiuExBEIRpz-4" value="Get Valve State" style="shape=parallelogram;perimeter=parallelogramPerimeter;whiteSpace=wrap;html=1;fixedSize=1;" vertex="1" parent="WIyWlLk6GJQsqaUBKTNV-1">
          <mxGeometry x="400" y="200" width="113.5" height="40" as="geometry" />
        </mxCell>
        <mxCell id="FCO6QtdX7hiuExBEIRpz-5" value="Database" style="shape=cylinder3;whiteSpace=wrap;html=1;boundedLbl=1;backgroundOutline=1;size=15;" vertex="1" parent="WIyWlLk6GJQsqaUBKTNV-1">
          <mxGeometry x="270" y="355" width="110" height="50" as="geometry" />
        </mxCell>
        <mxCell id="FCO6QtdX7hiuExBEIRpz-20" value="" style="endArrow=classic;html=1;rounded=0;entryX=0.5;entryY=0;entryDx=0;entryDy=0;" edge="1" parent="WIyWlLk6GJQsqaUBKTNV-1" target="FCO6QtdX7hiuExBEIRpz-2">
          <mxGeometry width="50" height="50" relative="1" as="geometry">
            <mxPoint x="340" y="160" as="sourcePoint" />
            <mxPoint x="220" y="150" as="targetPoint" />
            <Array as="points">
              <mxPoint x="205" y="160" />
            </Array>
          </mxGeometry>
        </mxCell>
        <mxCell id="FCO6QtdX7hiuExBEIRpz-21" value="" style="endArrow=classic;html=1;rounded=0;entryX=0.5;entryY=0;entryDx=0;entryDy=0;exitX=0.5;exitY=1;exitDx=0;exitDy=0;" edge="1" parent="WIyWlLk6GJQsqaUBKTNV-1" source="FCO6QtdX7hiuExBEIRpz-0" target="FCO6QtdX7hiuExBEIRpz-3">
          <mxGeometry width="50" height="50" relative="1" as="geometry">
            <mxPoint x="335" y="130" as="sourcePoint" />
            <mxPoint x="340" y="240" as="targetPoint" />
          </mxGeometry>
        </mxCell>
        <mxCell id="FCO6QtdX7hiuExBEIRpz-22" value="" style="endArrow=classic;html=1;rounded=0;entryX=0.5;entryY=0;entryDx=0;entryDy=0;" edge="1" parent="WIyWlLk6GJQsqaUBKTNV-1" target="FCO6QtdX7hiuExBEIRpz-4">
          <mxGeometry width="50" height="50" relative="1" as="geometry">
            <mxPoint x="340" y="160" as="sourcePoint" />
            <mxPoint x="590" y="130" as="targetPoint" />
            <Array as="points">
              <mxPoint x="457" y="160" />
            </Array>
          </mxGeometry>
        </mxCell>
        <mxCell id="FCO6QtdX7hiuExBEIRpz-26" value="" style="endArrow=classic;html=1;rounded=0;entryX=0.5;entryY=0;entryDx=0;entryDy=0;entryPerimeter=0;exitX=0.449;exitY=1.006;exitDx=0;exitDy=0;exitPerimeter=0;" edge="1" parent="WIyWlLk6GJQsqaUBKTNV-1" source="FCO6QtdX7hiuExBEIRpz-32" target="FCO6QtdX7hiuExBEIRpz-5">
          <mxGeometry width="50" height="50" relative="1" as="geometry">
            <mxPoint x="330" y="360" as="sourcePoint" />
            <mxPoint x="260" y="390" as="targetPoint" />
          </mxGeometry>
        </mxCell>
        <mxCell id="FCO6QtdX7hiuExBEIRpz-27" value="" style="endArrow=classic;html=1;rounded=0;entryX=0;entryY=0.5;entryDx=0;entryDy=0;" edge="1" parent="WIyWlLk6GJQsqaUBKTNV-1" source="FCO6QtdX7hiuExBEIRpz-2" target="FCO6QtdX7hiuExBEIRpz-32">
          <mxGeometry width="50" height="50" relative="1" as="geometry">
            <mxPoint x="205" y="340" as="sourcePoint" />
            <mxPoint x="270" y="360" as="targetPoint" />
            <Array as="points">
              <mxPoint x="205" y="300" />
            </Array>
          </mxGeometry>
        </mxCell>
        <mxCell id="FCO6QtdX7hiuExBEIRpz-28" value="" style="endArrow=classic;html=1;rounded=0;exitX=0.5;exitY=1;exitDx=0;exitDy=0;entryX=1;entryY=0.5;entryDx=0;entryDy=0;" edge="1" parent="WIyWlLk6GJQsqaUBKTNV-1" source="FCO6QtdX7hiuExBEIRpz-4" target="FCO6QtdX7hiuExBEIRpz-32">
          <mxGeometry width="50" height="50" relative="1" as="geometry">
            <mxPoint x="460" y="340" as="sourcePoint" />
            <mxPoint x="395" y="360" as="targetPoint" />
            <Array as="points">
              <mxPoint x="457" y="300" />
            </Array>
          </mxGeometry>
        </mxCell>
        <mxCell id="FCO6QtdX7hiuExBEIRpz-29" value="" style="endArrow=classic;html=1;rounded=0;exitX=0.447;exitY=1.016;exitDx=0;exitDy=0;exitPerimeter=0;" edge="1" parent="WIyWlLk6GJQsqaUBKTNV-1" source="FCO6QtdX7hiuExBEIRpz-3">
          <mxGeometry width="50" height="50" relative="1" as="geometry">
            <mxPoint x="330" y="280" as="sourcePoint" />
            <mxPoint x="330" y="280" as="targetPoint" />
          </mxGeometry>
        </mxCell>
        <mxCell id="FCO6QtdX7hiuExBEIRpz-32" value="Process P1" style="shape=process;whiteSpace=wrap;html=1;backgroundOutline=1;" vertex="1" parent="WIyWlLk6GJQsqaUBKTNV-1">
          <mxGeometry x="280" y="280" width="100" height="40" as="geometry" />
        </mxCell>
        <mxCell id="FCO6QtdX7hiuExBEIRpz-34" value="" style="endArrow=classic;html=1;rounded=0;exitX=0;exitY=0.5;exitDx=0;exitDy=0;exitPerimeter=0;entryX=1;entryY=0.5;entryDx=0;entryDy=0;" edge="1" parent="WIyWlLk6GJQsqaUBKTNV-1" source="FCO6QtdX7hiuExBEIRpz-5" target="FCO6QtdX7hiuExBEIRpz-42">
          <mxGeometry width="50" height="50" relative="1" as="geometry">
            <mxPoint x="220" y="500" as="sourcePoint" />
            <mxPoint x="190" y="475" as="targetPoint" />
          </mxGeometry>
        </mxCell>
        <mxCell id="FCO6QtdX7hiuExBEIRpz-36" value="" style="endArrow=classic;html=1;rounded=0;entryX=0;entryY=0.5;entryDx=0;entryDy=0;exitX=0.5;exitY=1;exitDx=0;exitDy=0;" edge="1" parent="WIyWlLk6GJQsqaUBKTNV-1" source="FCO6QtdX7hiuExBEIRpz-42" target="FCO6QtdX7hiuExBEIRpz-1">
          <mxGeometry width="50" height="50" relative="1" as="geometry">
            <mxPoint x="130" y="510" as="sourcePoint" />
            <mxPoint x="130" y="630" as="targetPoint" />
            <Array as="points">
              <mxPoint x="130" y="450" />
            </Array>
          </mxGeometry>
        </mxCell>
        <mxCell id="FCO6QtdX7hiuExBEIRpz-37" value="Yes" style="text;html=1;align=center;verticalAlign=middle;resizable=0;points=[];autosize=1;strokeColor=none;fillColor=none;" vertex="1" parent="WIyWlLk6GJQsqaUBKTNV-1">
          <mxGeometry x="90" y="410" width="40" height="20" as="geometry" />
        </mxCell>
        <mxCell id="FCO6QtdX7hiuExBEIRpz-40" value="" style="endArrow=classic;html=1;rounded=0;" edge="1" parent="WIyWlLk6GJQsqaUBKTNV-1" source="FCO6QtdX7hiuExBEIRpz-42">
          <mxGeometry width="50" height="50" relative="1" as="geometry">
            <mxPoint x="130" y="440" as="sourcePoint" />
            <mxPoint x="330" y="140" as="targetPoint" />
            <Array as="points">
              <mxPoint x="130" y="140" />
            </Array>
          </mxGeometry>
        </mxCell>
        <mxCell id="FCO6QtdX7hiuExBEIRpz-41" value="No" style="text;html=1;align=center;verticalAlign=middle;resizable=0;points=[];autosize=1;strokeColor=none;fillColor=none;" vertex="1" parent="WIyWlLk6GJQsqaUBKTNV-1">
          <mxGeometry x="95" y="330" width="30" height="20" as="geometry" />
        </mxCell>
        <mxCell id="FCO6QtdX7hiuExBEIRpz-42" value="Shut Down &lt;br&gt;Initiated?" style="rounded=0;whiteSpace=wrap;html=1;" vertex="1" parent="WIyWlLk6GJQsqaUBKTNV-1">
          <mxGeometry x="70" y="355" width="120" height="45" as="geometry" />
        </mxCell>
        <mxCell id="FCO6QtdX7hiuExBEIRpz-44" value="Start P1" style="ellipse;whiteSpace=wrap;html=1;" vertex="1" parent="WIyWlLk6GJQsqaUBKTNV-1">
          <mxGeometry x="585" y="80" width="110" height="40" as="geometry" />
        </mxCell>
        <mxCell id="FCO6QtdX7hiuExBEIRpz-46" value="Water Over Flow at&amp;nbsp;&lt;br&gt;Reservoir&amp;nbsp;1?" style="rounded=0;whiteSpace=wrap;html=1;" vertex="1" parent="WIyWlLk6GJQsqaUBKTNV-1">
          <mxGeometry x="580" y="160" width="120" height="40" as="geometry" />
        </mxCell>
        <mxCell id="FCO6QtdX7hiuExBEIRpz-47" value="Open Drain Valve 1" style="rhombus;whiteSpace=wrap;html=1;" vertex="1" parent="WIyWlLk6GJQsqaUBKTNV-1">
          <mxGeometry x="740" y="145" width="120" height="70" as="geometry" />
        </mxCell>
        <mxCell id="FCO6QtdX7hiuExBEIRpz-48" value="Water Shortage in&amp;nbsp;reservoir 2?" style="rounded=0;whiteSpace=wrap;html=1;" vertex="1" parent="WIyWlLk6GJQsqaUBKTNV-1">
          <mxGeometry x="580" y="240" width="120" height="40" as="geometry" />
        </mxCell>
        <mxCell id="FCO6QtdX7hiuExBEIRpz-49" value="Close Valve 2" style="rhombus;whiteSpace=wrap;html=1;" vertex="1" parent="WIyWlLk6GJQsqaUBKTNV-1">
          <mxGeometry x="740" y="225" width="120" height="70" as="geometry" />
        </mxCell>
        <mxCell id="FCO6QtdX7hiuExBEIRpz-51" value="Water pH Check" style="rounded=0;whiteSpace=wrap;html=1;" vertex="1" parent="WIyWlLk6GJQsqaUBKTNV-1">
          <mxGeometry x="580" y="320" width="120" height="40" as="geometry" />
        </mxCell>
        <mxCell id="FCO6QtdX7hiuExBEIRpz-52" value="Alert!! Warning" style="rhombus;whiteSpace=wrap;html=1;" vertex="1" parent="WIyWlLk6GJQsqaUBKTNV-1">
          <mxGeometry x="740" y="305" width="120" height="70" as="geometry" />
        </mxCell>
        <mxCell id="FCO6QtdX7hiuExBEIRpz-53" value="Irrigation Needed?&lt;br&gt;" style="rounded=0;whiteSpace=wrap;html=1;" vertex="1" parent="WIyWlLk6GJQsqaUBKTNV-1">
          <mxGeometry x="580" y="400" width="120" height="40" as="geometry" />
        </mxCell>
        <mxCell id="FCO6QtdX7hiuExBEIRpz-56" value="Open Valve 3" style="rhombus;whiteSpace=wrap;html=1;" vertex="1" parent="WIyWlLk6GJQsqaUBKTNV-1">
          <mxGeometry x="740" y="392.5" width="120" height="55" as="geometry" />
        </mxCell>
        <mxCell id="FCO6QtdX7hiuExBEIRpz-58" value="End P1" style="ellipse;whiteSpace=wrap;html=1;" vertex="1" parent="WIyWlLk6GJQsqaUBKTNV-1">
          <mxGeometry x="587.5" y="480" width="105" height="40" as="geometry" />
        </mxCell>
        <mxCell id="FCO6QtdX7hiuExBEIRpz-59" value="" style="endArrow=classic;html=1;rounded=0;exitX=0.5;exitY=1;exitDx=0;exitDy=0;entryX=0.5;entryY=0;entryDx=0;entryDy=0;" edge="1" parent="WIyWlLk6GJQsqaUBKTNV-1" source="FCO6QtdX7hiuExBEIRpz-44" target="FCO6QtdX7hiuExBEIRpz-46">
          <mxGeometry width="50" height="50" relative="1" as="geometry">
            <mxPoint x="470" y="210" as="sourcePoint" />
            <mxPoint x="520" y="160" as="targetPoint" />
          </mxGeometry>
        </mxCell>
        <mxCell id="FCO6QtdX7hiuExBEIRpz-60" value="" style="endArrow=classic;html=1;rounded=0;entryX=0;entryY=0.5;entryDx=0;entryDy=0;" edge="1" parent="WIyWlLk6GJQsqaUBKTNV-1" target="FCO6QtdX7hiuExBEIRpz-47">
          <mxGeometry width="50" height="50" relative="1" as="geometry">
            <mxPoint x="700" y="180" as="sourcePoint" />
            <mxPoint x="750" y="130" as="targetPoint" />
          </mxGeometry>
        </mxCell>
        <mxCell id="FCO6QtdX7hiuExBEIRpz-61" value="" style="endArrow=classic;html=1;rounded=0;entryX=0;entryY=0.5;entryDx=0;entryDy=0;" edge="1" parent="WIyWlLk6GJQsqaUBKTNV-1" target="FCO6QtdX7hiuExBEIRpz-49">
          <mxGeometry width="50" height="50" relative="1" as="geometry">
            <mxPoint x="700" y="259.58" as="sourcePoint" />
            <mxPoint x="770.0000000000002" y="259.58" as="targetPoint" />
          </mxGeometry>
        </mxCell>
        <mxCell id="FCO6QtdX7hiuExBEIRpz-62" value="" style="endArrow=classic;html=1;rounded=0;entryX=0;entryY=0.5;entryDx=0;entryDy=0;" edge="1" parent="WIyWlLk6GJQsqaUBKTNV-1" target="FCO6QtdX7hiuExBEIRpz-52">
          <mxGeometry width="50" height="50" relative="1" as="geometry">
            <mxPoint x="700" y="339.58000000000004" as="sourcePoint" />
            <mxPoint x="770.0000000000002" y="339.58000000000004" as="targetPoint" />
          </mxGeometry>
        </mxCell>
        <mxCell id="FCO6QtdX7hiuExBEIRpz-63" value="" style="endArrow=classic;html=1;rounded=0;entryX=0;entryY=0.5;entryDx=0;entryDy=0;" edge="1" parent="WIyWlLk6GJQsqaUBKTNV-1" target="FCO6QtdX7hiuExBEIRpz-56">
          <mxGeometry width="50" height="50" relative="1" as="geometry">
            <mxPoint x="700" y="419.58000000000004" as="sourcePoint" />
            <mxPoint x="770.0000000000002" y="419.58000000000004" as="targetPoint" />
          </mxGeometry>
        </mxCell>
        <mxCell id="FCO6QtdX7hiuExBEIRpz-64" value="" style="endArrow=classic;html=1;rounded=0;entryX=1;entryY=0.5;entryDx=0;entryDy=0;" edge="1" parent="WIyWlLk6GJQsqaUBKTNV-1" target="FCO6QtdX7hiuExBEIRpz-58">
          <mxGeometry width="50" height="50" relative="1" as="geometry">
            <mxPoint x="900" y="180" as="sourcePoint" />
            <mxPoint x="920" y="571.6666666666666" as="targetPoint" />
            <Array as="points">
              <mxPoint x="900" y="500" />
            </Array>
          </mxGeometry>
        </mxCell>
        <mxCell id="FCO6QtdX7hiuExBEIRpz-67" value="" style="endArrow=classic;html=1;rounded=0;exitX=1;exitY=0.5;exitDx=0;exitDy=0;" edge="1" parent="WIyWlLk6GJQsqaUBKTNV-1" source="FCO6QtdX7hiuExBEIRpz-47">
          <mxGeometry width="50" height="50" relative="1" as="geometry">
            <mxPoint x="890" y="210" as="sourcePoint" />
            <mxPoint x="900" y="180" as="targetPoint" />
          </mxGeometry>
        </mxCell>
        <mxCell id="FCO6QtdX7hiuExBEIRpz-70" value="" style="endArrow=classic;html=1;rounded=0;exitX=1;exitY=0.5;exitDx=0;exitDy=0;" edge="1" parent="WIyWlLk6GJQsqaUBKTNV-1" source="FCO6QtdX7hiuExBEIRpz-49">
          <mxGeometry width="50" height="50" relative="1" as="geometry">
            <mxPoint x="880" y="290" as="sourcePoint" />
            <mxPoint x="900" y="260" as="targetPoint" />
          </mxGeometry>
        </mxCell>
        <mxCell id="FCO6QtdX7hiuExBEIRpz-71" value="" style="endArrow=classic;html=1;rounded=0;exitX=1;exitY=0.5;exitDx=0;exitDy=0;" edge="1" parent="WIyWlLk6GJQsqaUBKTNV-1" source="FCO6QtdX7hiuExBEIRpz-52">
          <mxGeometry width="50" height="50" relative="1" as="geometry">
            <mxPoint x="880" y="370" as="sourcePoint" />
            <mxPoint x="900" y="340" as="targetPoint" />
          </mxGeometry>
        </mxCell>
        <mxCell id="FCO6QtdX7hiuExBEIRpz-72" value="" style="endArrow=classic;html=1;rounded=0;exitX=1;exitY=0.5;exitDx=0;exitDy=0;" edge="1" parent="WIyWlLk6GJQsqaUBKTNV-1" source="FCO6QtdX7hiuExBEIRpz-56">
          <mxGeometry width="50" height="50" relative="1" as="geometry">
            <mxPoint x="890" y="450" as="sourcePoint" />
            <mxPoint x="900" y="420" as="targetPoint" />
          </mxGeometry>
        </mxCell>
        <mxCell id="FCO6QtdX7hiuExBEIRpz-73" value="" style="endArrow=classic;html=1;rounded=0;exitX=0.5;exitY=1;exitDx=0;exitDy=0;entryX=0.5;entryY=0;entryDx=0;entryDy=0;" edge="1" parent="WIyWlLk6GJQsqaUBKTNV-1" source="FCO6QtdX7hiuExBEIRpz-53" target="FCO6QtdX7hiuExBEIRpz-58">
          <mxGeometry width="50" height="50" relative="1" as="geometry">
            <mxPoint x="620" y="480" as="sourcePoint" />
            <mxPoint x="670" y="430" as="targetPoint" />
          </mxGeometry>
        </mxCell>
        <mxCell id="FCO6QtdX7hiuExBEIRpz-75" value="" style="endArrow=classic;html=1;rounded=0;exitX=0.5;exitY=1;exitDx=0;exitDy=0;entryX=0.5;entryY=0;entryDx=0;entryDy=0;" edge="1" parent="WIyWlLk6GJQsqaUBKTNV-1" source="FCO6QtdX7hiuExBEIRpz-46" target="FCO6QtdX7hiuExBEIRpz-48">
          <mxGeometry width="50" height="50" relative="1" as="geometry">
            <mxPoint x="620" y="250" as="sourcePoint" />
            <mxPoint x="670" y="200" as="targetPoint" />
          </mxGeometry>
        </mxCell>
        <mxCell id="FCO6QtdX7hiuExBEIRpz-76" value="" style="endArrow=classic;html=1;rounded=0;exitX=0.5;exitY=1;exitDx=0;exitDy=0;entryX=0.5;entryY=0;entryDx=0;entryDy=0;" edge="1" parent="WIyWlLk6GJQsqaUBKTNV-1" source="FCO6QtdX7hiuExBEIRpz-48" target="FCO6QtdX7hiuExBEIRpz-51">
          <mxGeometry width="50" height="50" relative="1" as="geometry">
            <mxPoint x="630" y="320" as="sourcePoint" />
            <mxPoint x="680" y="270" as="targetPoint" />
          </mxGeometry>
        </mxCell>
        <mxCell id="FCO6QtdX7hiuExBEIRpz-77" value="" style="endArrow=classic;html=1;rounded=0;" edge="1" parent="WIyWlLk6GJQsqaUBKTNV-1" target="FCO6QtdX7hiuExBEIRpz-53">
          <mxGeometry width="50" height="50" relative="1" as="geometry">
            <mxPoint x="640" y="360" as="sourcePoint" />
            <mxPoint x="490" y="380" as="targetPoint" />
          </mxGeometry>
        </mxCell>
        <mxCell id="FCO6QtdX7hiuExBEIRpz-78" value="Yes" style="text;html=1;align=center;verticalAlign=middle;resizable=0;points=[];autosize=1;strokeColor=none;fillColor=none;" vertex="1" parent="WIyWlLk6GJQsqaUBKTNV-1">
          <mxGeometry x="710" y="160" width="40" height="20" as="geometry" />
        </mxCell>
        <mxCell id="FCO6QtdX7hiuExBEIRpz-79" value="Yes" style="text;html=1;align=center;verticalAlign=middle;resizable=0;points=[];autosize=1;strokeColor=none;fillColor=none;" vertex="1" parent="WIyWlLk6GJQsqaUBKTNV-1">
          <mxGeometry x="710" y="240" width="40" height="20" as="geometry" />
        </mxCell>
        <mxCell id="FCO6QtdX7hiuExBEIRpz-80" value="Yes" style="text;html=1;align=center;verticalAlign=middle;resizable=0;points=[];autosize=1;strokeColor=none;fillColor=none;" vertex="1" parent="WIyWlLk6GJQsqaUBKTNV-1">
          <mxGeometry x="710" y="320" width="40" height="20" as="geometry" />
        </mxCell>
        <mxCell id="FCO6QtdX7hiuExBEIRpz-81" value="Yes" style="text;html=1;align=center;verticalAlign=middle;resizable=0;points=[];autosize=1;strokeColor=none;fillColor=none;" vertex="1" parent="WIyWlLk6GJQsqaUBKTNV-1">
          <mxGeometry x="710" y="400" width="40" height="20" as="geometry" />
        </mxCell>
        <mxCell id="FCO6QtdX7hiuExBEIRpz-82" value="No" style="text;html=1;align=center;verticalAlign=middle;resizable=0;points=[];autosize=1;strokeColor=none;fillColor=none;" vertex="1" parent="WIyWlLk6GJQsqaUBKTNV-1">
          <mxGeometry x="640" y="210" width="30" height="20" as="geometry" />
        </mxCell>
        <mxCell id="FCO6QtdX7hiuExBEIRpz-83" value="No" style="text;html=1;align=center;verticalAlign=middle;resizable=0;points=[];autosize=1;strokeColor=none;fillColor=none;" vertex="1" parent="WIyWlLk6GJQsqaUBKTNV-1">
          <mxGeometry x="640" y="290" width="30" height="20" as="geometry" />
        </mxCell>
        <mxCell id="FCO6QtdX7hiuExBEIRpz-85" value="No" style="text;html=1;align=center;verticalAlign=middle;resizable=0;points=[];autosize=1;strokeColor=none;fillColor=none;" vertex="1" parent="WIyWlLk6GJQsqaUBKTNV-1">
          <mxGeometry x="640" y="370" width="30" height="20" as="geometry" />
        </mxCell>
        <mxCell id="FCO6QtdX7hiuExBEIRpz-86" value="No" style="text;html=1;align=center;verticalAlign=middle;resizable=0;points=[];autosize=1;strokeColor=none;fillColor=none;" vertex="1" parent="WIyWlLk6GJQsqaUBKTNV-1">
          <mxGeometry x="640" y="450" width="30" height="20" as="geometry" />
        </mxCell>
        <mxCell id="FCO6QtdX7hiuExBEIRpz-91" value="Show Sensor Information" style="shape=parallelogram;perimeter=parallelogramPerimeter;whiteSpace=wrap;html=1;fixedSize=1;" vertex="1" parent="WIyWlLk6GJQsqaUBKTNV-1">
          <mxGeometry x="420" y="320" width="110" height="40" as="geometry" />
        </mxCell>
        <mxCell id="FCO6QtdX7hiuExBEIRpz-92" value="" style="endArrow=classic;html=1;rounded=0;" edge="1" parent="WIyWlLk6GJQsqaUBKTNV-1" target="FCO6QtdX7hiuExBEIRpz-91">
          <mxGeometry width="50" height="50" relative="1" as="geometry">
            <mxPoint x="325" y="340" as="sourcePoint" />
            <mxPoint x="410" y="390" as="targetPoint" />
            <Array as="points" />
          </mxGeometry>
        </mxCell>
      </root>
    </mxGraphModel>
  </diagram>
</mxfile>
